<svg width="401" height="107" viewBox="0 0 401 107" fill="none" xmlns="http://www.w3.org/2000/svg">
<path d="M17.5781 9.66016H10.9277V28H7.25098V9.66016H0.65918V6.67188H17.5781V9.66016ZM37.3242 28H33.6328V18.5225H24.0967V28H20.3906V6.67188H24.0967V15.5488H33.6328V6.67188H37.3242V28ZM54.1846 18.4785H45.4248V25.041H55.6641V28H41.7188V6.67188H55.5615V9.66016H45.4248V15.5488H54.1846V18.4785Z" fill="#393939"/>
<path d="M24.0967 55.9365H9.79004V71H3.61328V35.4531H26.1963V40.4336H9.79004V51.0049H24.0967V55.9365ZM37.2803 66.0684H53.418V71H31.1035V35.4531H37.2803V66.0684ZM64.6729 71H58.5205V35.4531H64.6729V71ZM99.5117 66.3857C98.2259 68.0622 96.4437 69.3317 94.165 70.1943C91.8864 71.057 89.2985 71.4883 86.4014 71.4883C83.4229 71.4883 80.7861 70.8128 78.4912 69.4619C76.1963 68.111 74.4222 66.1823 73.1689 63.6758C71.932 61.153 71.2891 58.2152 71.2402 54.8623V52.0791C71.2402 46.708 72.526 42.5169 75.0977 39.5059C77.6693 36.4785 81.2581 34.9648 85.8643 34.9648C89.8193 34.9648 92.9606 35.9414 95.2881 37.8945C97.6156 39.8477 99.0153 42.6634 99.4873 46.3418H93.4326C92.749 42.0612 90.2669 39.9209 85.9863 39.9209C83.2194 39.9209 81.1117 40.9219 79.6631 42.9238C78.2308 44.9095 77.4902 47.8311 77.4414 51.6885V54.4229C77.4414 58.264 78.2471 61.2507 79.8584 63.3828C81.486 65.4987 83.7402 66.5566 86.6211 66.5566C89.7786 66.5566 92.0247 65.8405 93.3594 64.4082V57.4502H86.0352V52.7627H99.5117V66.3857ZM134.521 71H128.369V55.2041H112.476V71H106.299V35.4531H112.476V50.248H128.369V35.4531H134.521V71ZM166.797 40.4336H155.713V71H149.585V40.4336H138.599V35.4531H166.797V40.4336ZM182.471 71V35.4531H194.653C198.674 35.4531 201.733 36.2588 203.833 37.8701C205.933 39.4814 206.982 41.8822 206.982 45.0723C206.982 46.6999 206.543 48.1647 205.664 49.4668C204.785 50.7689 203.499 51.778 201.807 52.4941C203.727 53.015 205.208 53.9997 206.25 55.4482C207.308 56.8805 207.837 58.6058 207.837 60.624C207.837 63.9606 206.763 66.5241 204.614 68.3145C202.482 70.1048 199.422 71 195.435 71H182.471ZM188.647 54.96V66.0684H195.508C197.445 66.0684 198.958 65.5882 200.049 64.6279C201.139 63.6676 201.685 62.333 201.685 60.624C201.685 56.9294 199.797 55.0413 196.021 54.96H188.647ZM188.647 50.4189H194.702C196.623 50.4189 198.12 49.9876 199.194 49.125C200.285 48.2461 200.83 47.0091 200.83 45.4141C200.83 43.6562 200.326 42.3867 199.316 41.6055C198.324 40.8242 196.769 40.4336 194.653 40.4336H188.647V50.4189ZM298.926 55.6436L294.897 59.916V71H288.721V35.4531H294.897V52.1279L298.315 47.9043L308.716 35.4531H316.187L302.979 51.2002L316.943 71H309.619L298.926 55.6436ZM326.782 71H320.63V35.4531H326.782V71ZM362.573 71H356.396L340.552 45.7803V71H334.375V35.4531H340.552L356.445 60.7705V35.4531H362.573V71ZM397.119 66.3857C395.833 68.0622 394.051 69.3317 391.772 70.1943C389.494 71.057 386.906 71.4883 384.009 71.4883C381.03 71.4883 378.394 70.8128 376.099 69.4619C373.804 68.111 372.03 66.1823 370.776 63.6758C369.539 61.153 368.896 58.2152 368.848 54.8623V52.0791C368.848 46.708 370.133 42.5169 372.705 39.5059C375.277 36.4785 378.866 34.9648 383.472 34.9648C387.427 34.9648 390.568 35.9414 392.896 37.8945C395.223 39.8477 396.623 42.6634 397.095 46.3418H391.04C390.356 42.0612 387.874 39.9209 383.594 39.9209C380.827 39.9209 378.719 40.9219 377.271 42.9238C375.838 44.9095 375.098 47.8311 375.049 51.6885V54.4229C375.049 58.264 375.854 61.2507 377.466 63.3828C379.093 65.4987 381.348 66.5566 384.229 66.5566C387.386 66.5566 389.632 65.8405 390.967 64.4082V57.4502H383.643V52.7627H397.119V66.3857Z" fill="#393939"/>
<path d="M276.442 93.0566C276.228 95.332 275.388 97.1094 273.923 98.3887C272.458 99.6582 270.51 100.293 268.078 100.293C266.379 100.293 264.88 99.8926 263.581 99.0918C262.292 98.2812 261.296 97.1338 260.593 95.6494C259.89 94.165 259.523 92.4414 259.494 90.4785V88.4863C259.494 86.4746 259.851 84.7021 260.563 83.1689C261.276 81.6357 262.297 80.4541 263.625 79.624C264.963 78.7939 266.506 78.3789 268.254 78.3789C270.607 78.3789 272.502 79.0186 273.938 80.2979C275.373 81.5771 276.208 83.3838 276.442 85.7178H272.751C272.575 84.1846 272.126 83.0811 271.403 82.4072C270.69 81.7236 269.641 81.3818 268.254 81.3818C266.643 81.3818 265.402 81.9727 264.533 83.1543C263.674 84.3262 263.234 86.0498 263.215 88.3252V90.2148C263.215 92.5195 263.625 94.2773 264.445 95.4883C265.275 96.6992 266.486 97.3047 268.078 97.3047C269.533 97.3047 270.627 96.9775 271.359 96.3232C272.092 95.6689 272.556 94.5801 272.751 93.0566H276.442ZM296.789 89.8926C296.789 91.9824 296.428 93.8184 295.705 95.4004C294.982 96.9727 293.947 98.1836 292.6 99.0332C291.262 99.873 289.719 100.293 287.971 100.293C286.242 100.293 284.699 99.873 283.342 99.0332C281.994 98.1836 280.949 96.9775 280.207 95.415C279.475 93.8525 279.104 92.0508 279.094 90.0098V88.8086C279.094 86.7285 279.46 84.8926 280.192 83.3008C280.935 81.709 281.975 80.4932 283.312 79.6533C284.66 78.8037 286.203 78.3789 287.941 78.3789C289.68 78.3789 291.218 78.7988 292.556 79.6387C293.903 80.4688 294.943 81.6699 295.676 83.2422C296.408 84.8047 296.779 86.626 296.789 88.7061V89.8926ZM293.083 88.7793C293.083 86.416 292.634 84.6045 291.735 83.3447C290.847 82.085 289.582 81.4551 287.941 81.4551C286.34 81.4551 285.085 82.085 284.177 83.3447C283.278 84.5947 282.819 86.3672 282.8 88.6621V89.8926C282.8 92.2363 283.254 94.0479 284.162 95.3271C285.08 96.6064 286.35 97.2461 287.971 97.2461C289.611 97.2461 290.871 96.6211 291.75 95.3711C292.639 94.1211 293.083 92.2949 293.083 89.8926V88.7793ZM305.285 78.6719L311.438 95.0195L317.575 78.6719H322.365V100H318.674V92.9688L319.04 83.5645L312.741 100H310.09L303.806 83.5791L304.172 92.9688V100H300.48V78.6719H305.285ZM330.466 92.0752V100H326.76V78.6719H334.919C337.302 78.6719 339.191 79.292 340.588 80.5322C341.994 81.7725 342.697 83.4131 342.697 85.4541C342.697 87.5439 342.009 89.1699 340.632 90.332C339.265 91.4941 337.346 92.0752 334.875 92.0752H330.466ZM330.466 89.1016H334.919C336.237 89.1016 337.243 88.7939 337.937 88.1787C338.63 87.5537 338.977 86.6553 338.977 85.4834C338.977 84.3311 338.625 83.4131 337.922 82.7295C337.219 82.0361 336.252 81.6797 335.021 81.6602H330.466V89.1016ZM355.28 95.0342H347.019L345.29 100H341.438L349.494 78.6719H352.819L360.891 100H357.023L355.28 95.0342ZM348.059 92.0459H354.24L351.149 83.1982L348.059 92.0459ZM380.241 100H376.535L367.028 84.8682V100H363.322V78.6719H367.028L376.564 93.8623V78.6719H380.241V100ZM391.169 88.7793L396.076 78.6719H400.178L393.029 92.1484V100H389.309V92.1484L382.146 78.6719H386.262L391.169 88.7793Z" fill="#393939"/>
<circle cx="227.5" cy="53.5" r="18.5" fill="#393939"/>
<circle cx="267.5" cy="53.5" r="18.5" fill="#393939"/>
</svg>
